<svg xmlns="http://www.w3.org/2000/svg" width="451.897" height="240.576" viewBox="0 0 451.897 240.576">
  <g id="Skylab_Login" data-name="Skylab Login" transform="translate(-95.59 -92.758)">
    <path id="Path_11874" data-name="Path 11874" d="M37.3,23.243a6.8,6.8,0,0,0-2.651-5.766Q32,15.466,25.108,13.234a67.661,67.661,0,0,1-10.914-4.4Q3.235,2.916,3.235-7.114a15.536,15.536,0,0,1,2.938-9.3,19.167,19.167,0,0,1,8.44-6.385,31.766,31.766,0,0,1,12.35-2.3,28.914,28.914,0,0,1,12.284,2.5,19.56,19.56,0,0,1,8.374,7.048A18.442,18.442,0,0,1,50.6-5.214H37.348a8.676,8.676,0,0,0-2.784-6.871q-2.784-2.452-7.821-2.452-4.861,0-7.556,2.055a6.481,6.481,0,0,0-2.7,5.413,6.207,6.207,0,0,0,3.159,5.258,35.7,35.7,0,0,0,9.3,3.977q11.312,3.4,16.482,8.44A16.808,16.808,0,0,1,50.6,23.154a15.483,15.483,0,0,1-6.319,13.1q-6.319,4.75-17.012,4.75a32.851,32.851,0,0,1-13.521-2.718,21.4,21.4,0,0,1-9.3-7.446,19.068,19.068,0,0,1-3.2-10.959h13.3q0,10.649,12.726,10.649a12.38,12.38,0,0,0,7.379-1.922A6.254,6.254,0,0,0,37.3,23.243Zm38.8-2.3-4.6,4.6V40.122H58.735V-27.75h12.77v37.6L73.98,6.672,86.22-7.689h15.333L84.275,12.24l18.78,27.882H88.385Zm48.827,1.1,8.838-29.738h13.7l-18.11,52.521-1.061,2.519q-4.286,9.368-14.14,9.368a20.093,20.093,0,0,1-5.656-.84V46.2l1.944.044a10.505,10.505,0,0,0,5.413-1.1,7.257,7.257,0,0,0,2.806-3.668l.39-1.219L102.3-7.689h13.742Z" transform="translate(279.391 224.032)" fill="#e6e6e6"/>
    <g id="Group_1" data-name="Group 1" transform="translate(280.183 280.751)">
      <path id="Path_1" data-name="Path 1" d="M113.445,34.833a6.875,6.875,0,0,0,2.815-1.944,5.618,5.618,0,0,0,1.274-3.821c0-3.821-2.549-5.9-7.172-5.9h-7.778a.066.066,0,0,0-.066.067V43.282a.066.066,0,0,0,.068.063h4.023a.066.066,0,0,0,.066-.067V35.1h2.278l4.894,8.244v0a.065.065,0,0,0,.067.065h4.626c.067-.068.133-.135.067-.135Zm-3.284-3.218h-3.485v-4.96h3.485c2.614,0,3.149,1.342,3.149,2.413C113.31,30.81,112.306,31.615,110.161,31.615Z" transform="translate(-52.627 -11.896)" fill="#e6e6e6"/>
      <path id="Path_2" data-name="Path 2" d="M144.062,34.191c-4.088,0-7.1,3.083-7.1,7.439,0,4.49,2.881,7.508,7.1,7.508,4.089,0,7.039-3.218,7.1-7.508C151.166,37.208,148.283,34.191,144.062,34.191Zm0,11.527c-2.011,0-3.284-1.608-3.284-4.088s1.274-4.022,3.284-4.022,3.218,1.543,3.284,4.022C147.346,44.176,146.072,45.718,144.062,45.718Z" transform="translate(-70.308 -17.554)" fill="#e6e6e6"/>
      <path id="Path_3" data-name="Path 3" d="M176.149,34.187a6.8,6.8,0,0,0-5.228,2.212,8.012,8.012,0,0,0-1.877,5.429c0,4.558,2.682,7.373,6.9,7.373,3.755,0,6.167-2.01,6.569-5.5v-.068h-3.484c-.068,0-.068,0-.068.068-.268,1.407-1.206,2.077-2.815,2.077-2.681,0-3.083-2.482-3.083-3.954-.067-2.145.8-4.223,3.083-4.223a2.524,2.524,0,0,1,2.748,2.145.066.066,0,0,0,.063.068h3.556a.066.066,0,0,0,.067-.066v0C182.316,36.2,179.97,34.187,176.149,34.187Z" transform="translate(-86.778 -17.55)" fill="#e6e6e6"/>
      <path id="Path_4" data-name="Path 4" d="M234.632,34.191c-4.222,0-7.039,3.016-7.039,7.506,0,4.626,2.616,7.441,7.039,7.441,3.217,0,5.832-2.011,6.234-4.827v-.067h-3.623a.065.065,0,0,0-.064.067c-.336,1.072-1.139,1.543-2.547,1.543a2.9,2.9,0,0,1-3.151-2.95H241.2a.065.065,0,0,0,.064-.067,8.66,8.66,0,0,0,.067-1.342C241.334,37.006,238.787,34.191,234.632,34.191Zm-3.084,5.631a2.852,2.852,0,0,1,3.017-2.346,2.718,2.718,0,0,1,2.881,2.346Z" transform="translate(-116.839 -17.554)" fill="#e6e6e6"/>
      <path id="Path_5" data-name="Path 5" d="M268.994,41.825a.065.065,0,0,0-.064-.067h-1.88c-1.071,0-1.408-.268-1.408-1.34V33.647h3.285a.065.065,0,0,0,.067-.064V30.3a.146.146,0,0,0-.135-.135h-3.283v-3.62a.065.065,0,0,0-.064-.067h-3.622a.065.065,0,0,0-.067.064v3.623H259.34a.066.066,0,0,0-.067.066v3.287a.065.065,0,0,0,.064.067h2.485v7.642c0,3.216,1.809,3.888,4.623,3.888h2.482a.066.066,0,0,0,.067-.066v-3.22Z" transform="translate(-133.103 -13.592)" fill="#e6e6e6"/>
      <path id="Path_6" data-name="Path 6" d="M291.259,40.275l0,0-3.083-1c-1.141-.4-1.342-.67-1.342-1.139s.2-1.071,1.877-1.071c1.34,0,2.145.535,2.145,1.473a.066.066,0,0,0,.063.068h3.556a.066.066,0,0,0,.067-.066v0a4.139,4.139,0,0,0-1.809-3.618,7.066,7.066,0,0,0-4.022-1.006c-2.815,0-5.832,1.207-5.9,4.491,0,2.547,1.876,3.485,3.753,4.021l2.346.738c1.676.535,2.145.737,2.145,1.407,0,.738-.4,1.207-2.346,1.207-1.542,0-2.346-.6-2.482-1.743a.066.066,0,0,0-.066-.067h-3.555a.065.065,0,0,0-.068.063v0c0,4.022,3.352,4.893,6.234,4.893A8.373,8.373,0,0,0,293,47.917a3.965,3.965,0,0,0,1.944-3.62C294.946,41.951,293.471,41.013,291.259,40.275Z" transform="translate(-145.051 -17.403)" fill="#e6e6e6"/>
      <path id="Path_7" data-name="Path 7" d="M317.832,34.191c-4.224,0-7.039,3.016-7.039,7.506,0,4.626,2.614,7.441,7.039,7.441a6.026,6.026,0,0,0,6.234-4.827v-.067h-3.623a.065.065,0,0,0-.064.067c-.336,1.072-1.141,1.543-2.547,1.543a2.9,2.9,0,0,1-3.151-2.95H324.4a.066.066,0,0,0,.066-.067,8.617,8.617,0,0,0,.067-1.342C324.535,37.006,321.988,34.191,317.832,34.191Zm-3.152,5.631a2.852,2.852,0,0,1,3.017-2.346,2.638,2.638,0,0,1,2.883,2.346Z" transform="translate(-159.552 -17.554)" fill="#e6e6e6"/>
      <path id="Path_8" data-name="Path 8" d="M356.078,45.987v0a.065.065,0,0,0-.067-.064h-.334c-.471,0-.738-.27-.738-.8V39.35c0-3.687-1.947-5.429-6.034-5.429-3.753,0-6.166,1.808-6.166,4.623v0a.066.066,0,0,0,.067.066h3.555a.066.066,0,0,0,.065-.068c0-.938.8-1.407,2.347-1.407,1.473,0,2.278.469,2.278,1.34,0,.668-.267.869-1.407,1.071l-2.414.469q-5.027.9-5.027,4.626c0,2.546,1.877,4.222,4.692,4.222a5.154,5.154,0,0,0,4.492-2.01v.067l0,.033A1.962,1.962,0,0,0,353.26,49h2.749v0c.067,0,.135-.067.067-.135Zm-4.894-3.356a3.219,3.219,0,0,1-3.218,3.218c-.8,0-1.742-.268-1.742-1.475,0-.871.6-1.34,2.077-1.674l2.078-.4a1.537,1.537,0,0,0,.737-.2h.068Z" transform="translate(-175.678 -17.415)" fill="#e6e6e6"/>
      <path id="Path_9" data-name="Path 9" d="M381.605,41.894h-1.881c-1.07,0-1.407-.268-1.407-1.34V33.718h3.219a.065.065,0,0,0,.067-.064V30.367a.065.065,0,0,0-.064-.067H378.25V26.682a.066.066,0,0,0-.063-.068h-3.623a.066.066,0,0,0-.067.066V30.3h-2.482a.065.065,0,0,0-.067.064v3.287a.065.065,0,0,0,.064.067H374.5v7.64c0,3.218,1.809,3.888,4.623,3.888H381.6a.065.065,0,0,0,.067-.064V41.962A.065.065,0,0,0,381.605,41.894Z" transform="translate(-190.949 -13.664)" fill="#e6e6e6"/>
      <path id="Path_10" data-name="Path 10" d="M214.065,34.323s.068-.067,0-.067A.065.065,0,0,0,214,34.19h-4.626l-5.095,4.96V34.257a.065.065,0,0,0-.064-.067h-3.689a.066.066,0,0,0-.068.063V49a.066.066,0,0,0,.065.068h3.621a.067.067,0,0,0,.068-.065V43.976l1.273-1.274,4.288,6.369.068.067H214.4a.065.065,0,0,0,.067-.064V49L208.3,40.022Z" transform="translate(-102.909 -17.553)" fill="#e6e6e6"/>
      <path id="Path_11" data-name="Path 11" d="M22.31,50.226c-1.071-.67-5.563-3.419-5.563-3.419s-4.491-2.748-5.563-3.419a.128.128,0,0,0-.2.068v.067a3.043,3.043,0,0,1-.067.8.4.4,0,0,0,.067.268l1.274,2.078a.928.928,0,0,1,.133.737L11.518,50.9c-.067.135,0,.268.135.4a18.58,18.58,0,0,0,3.62,2.212.314.314,0,0,0,.4-.067l2.681-2.413a.81.81,0,0,1,.67-.2l2.413.2a.408.408,0,0,0,.269-.067l.737-.4C22.378,50.428,22.445,50.293,22.31,50.226Z" transform="translate(-5.599 -22.262)" fill="#e6e6e6"/>
      <path id="Path_12" data-name="Path 12" d="M9.129,63.822a.964.964,0,0,0-.469-.67,6.525,6.525,0,0,1-1.407-.8,13.641,13.641,0,0,1-1.342-.94.851.851,0,0,0-.8-.133l-.135.067a3.387,3.387,0,0,0-2.212,2.346L.014,73.742a.292.292,0,0,0,.162.38.3.3,0,0,0,.106.021.507.507,0,0,0,.336-.067l7.64-7.037a3.687,3.687,0,0,0,1.071-3.017Z" transform="translate(0.008 -31.434)" fill="#e6e6e6"/>
      <path id="Path_13" data-name="Path 13" d="M34.005,6.315c.872-1.141,3.284-4.425,3.284-4.425a.572.572,0,0,0,.066-.806.523.523,0,0,0-.066-.066,1.361,1.361,0,0,0-.535-.268L32,.013a1.212,1.212,0,0,0-1.139.471L28.309,3.969a1.159,1.159,0,0,0,.2,1.606c.067,0,.067.068,0,.135,0,0-.067.067-.067,0l-1.273-.2-1.877-.2a1.345,1.345,0,0,0-1.273.535L16.445,16.163a.253.253,0,0,1-.34.113.259.259,0,0,1-.063-.045L8.8,11.811a.976.976,0,0,0-1.34.335h0a1.1,1.1,0,0,0,.4,1.407l.2.135a.346.346,0,0,1,.135.268L8,15.431c0,.135-.135.2-.2.135H7.73l-1.071-.6a1.773,1.773,0,0,0-2.447.546c-.012.019-.024.038-.035.057a1.6,1.6,0,0,0,.177,2.258l.024.02a2.686,2.686,0,0,1,.268.2L10.078,21.4a4.93,4.93,0,0,0,5.832-.2,1.87,1.87,0,0,1,2.482-.269,1.213,1.213,0,0,0,1.34,0l1.342-.8a1.1,1.1,0,0,1,1.274,0l4.088,2.482c.135.068.4.068.471-.067L36.958,8.865c.8-1.075.2-1.612-.272-1.746h-.067l-2.413-.334c-.068,0-.068,0-.135-.067a.253.253,0,0,1-.112-.339A.242.242,0,0,1,34.005,6.315Z" transform="translate(-1.944 -0.001)" fill="#e6e6e6"/>
    </g>
    <g id="Group_3578" data-name="Group 3578" transform="translate(92.6 92.758)">
      <ellipse id="Ellipse_210" data-name="Ellipse 210" cx="61.658" cy="6.324" rx="61.658" ry="6.324" transform="translate(14.89 227.928)" fill="#0a0a0d"/>
      <g id="Group_3577" data-name="Group 3577" transform="translate(0)">
        <g id="Group_3576" data-name="Group 3576" transform="translate(0 19.407)">
          <path id="Path_3975" data-name="Path 3975" d="M5.817,0H66.589a5.817,5.817,0,0,1,5.817,5.817V75.679A5.817,5.817,0,0,1,66.589,81.5H5.817A5.817,5.817,0,0,1,0,75.679V5.817A5.817,5.817,0,0,1,5.817,0Z" transform="translate(112.246 162.102) rotate(-179.882)" fill="#7159c1"/>
          <rect id="Rectangle_978" data-name="Rectangle 978" width="54.97" height="70.596" transform="translate(103.544 154.326) rotate(-179.882)" fill="#e8f4fc"/>
          <path id="Path_3648" data-name="Path 3648" d="M0,15.987C4.54,11.448,11.836,8.135,21.933,4.682,33.792.625,42.48-1.217,49.406.861L.543,17.574Z" transform="translate(98.482 100.523) rotate(-161)" fill="#a1c2e2"/>
          <path id="Path_3649" data-name="Path 3649" d="M58.616,26.549,12.964,42.163c-6.215,2.126-8.011-3.789-10.477-11h0C.021,23.954-2.182,18.179,4.034,16.052L49.685.439c6.216-2.126,8.011,3.789,10.477,11h0C62.629,18.648,64.832,24.424,58.616,26.549Z" transform="translate(98.769 172.584) rotate(-161)" fill="#e8f4fc"/>
          <rect id="Rectangle_979" data-name="Rectangle 979" width="20.392" height="26.538" transform="translate(103.508 180.26) rotate(-179.882)" fill="#e8f4fc"/>
          <path id="Path_3650" data-name="Path 3650" d="M19.295,0,0,6.6,8.162,35.257l22.021-7.532Z" transform="translate(101.293 218.196) rotate(-161)" fill="#e8f4fc"/>
          <path id="Path_3651" data-name="Path 3651" d="M0,7.245s.84,13.417,9.042,8.972S21.182,0,21.182,0Z" transform="translate(106.736 218.818) rotate(-161)" fill="#a1c2e2"/>
          <rect id="Rectangle_981" data-name="Rectangle 981" width="26.044" height="1.939" transform="translate(109.09 213.907) rotate(-179.882)" fill="#7159c1"/>
          <path id="Path_3652" data-name="Path 3652" d="M0,.825,2.412,0,4.334,4.893C1.073,4.737,0,.825,0,.825Z" transform="translate(85.329 212.699) rotate(-161)" fill="#a1c2e2"/>
          <rect id="Rectangle_982" data-name="Rectangle 982" width="20.392" height="26.538" transform="matrix(1, 0.002, -0.002, 1, 48.564, 153.609)" fill="#e8f4fc"/>
          <path id="Path_3653" data-name="Path 3653" d="M11.634,28.112,0,11.065,21.477,0l9.339,18.128Z" transform="translate(126.942 110.901) rotate(-161)" fill="#e8f4fc"/>
          <path id="Path_3655" data-name="Path 3655" d="M14.349,33.954,0,19.465,17.844,0,33.987,16.3Z" transform="translate(151.284 105.688) rotate(-161)" fill="#e8f4fc"/>
          <path id="Rectangle_985" data-name="Rectangle 985" d="M0,0H20.392a0,0,0,0,1,0,0V13.388a8.332,8.332,0,0,1-8.332,8.332h0A12.059,12.059,0,0,1,0,9.661V0A0,0,0,0,1,0,0Z" transform="translate(158.373 86.923) rotate(-115.72)" fill="#e8f4fc"/>
          <path id="Path_3656" data-name="Path 3656" d="M0,6.6,19.295,0l11.1,27.653L8.372,35.185Z" transform="translate(66.688 218.125) rotate(-161)" fill="#e8f4fc"/>
          <path id="Path_3657" data-name="Path 3657" d="M21.182,0s7.552,11.121-1.654,12.63S0,7.245,0,7.245Z" transform="translate(62.822 218.727) rotate(-161)" fill="#a1c2e2"/>
          <rect id="Rectangle_986" data-name="Rectangle 986" width="26.044" height="1.939" transform="translate(42.792 211.831) rotate(0.118)" fill="#7159c1"/>
          <path id="Path_3658" data-name="Path 3658" d="M2.412,0,0,.825,1.478,5.87C3.959,3.75,2.412,0,2.412,0Z" transform="translate(68.567 212.665) rotate(-161)" fill="#a1c2e2"/>
          <path id="Path_3660" data-name="Path 3660" d="M7.02,0l19.9,4.465L22.385,30.48,0,25.456Z" transform="translate(38.112 139.099) rotate(-161)" fill="#e8f4fc"/>
          <path id="Path_3661" data-name="Path 3661" d="M26.655,12.461,23.98,24.381,10.017,21.248h0L4.083,19.916l.021-.09L.352,12.786A2.992,2.992,0,1,1,5.633,9.972l.479.9L7.4,5.13A6.567,6.567,0,0,1,15.246.161l4.217.946A9.5,9.5,0,0,1,26.655,12.461Z" transform="translate(28.413 157.683) rotate(-161)" fill="#e8f4fc"/>
          <path id="Path_3663" data-name="Path 3663" d="M11.214,27.487,0,2.906,1.323,0,19.882,8.45Z" transform="translate(47.2 115.451) rotate(-161)" fill="#e8f4fc"/>
          <g id="Group_1690" data-name="Group 1690" transform="translate(117.691 205.909) rotate(-161)">
            <rect id="Rectangle_980" data-name="Rectangle 980" width="20.392" height="1.939" transform="translate(21.134 17.798) rotate(-18.882)" fill="#7159c1" stroke="rgba(0,0,0,0)" stroke-width="1"/>
            <rect id="Rectangle_983" data-name="Rectangle 983" width="20.392" height="1.939" transform="translate(73.8 1.835) rotate(161.118)" fill="#7159c1" stroke="rgba(0,0,0,0)" stroke-width="1"/>
            <rect id="Rectangle_984" data-name="Rectangle 984" width="21.169" height="0.832" transform="translate(0.591 124.886) rotate(45.28)" fill="#7159c1" stroke="rgba(0,0,0,0)" stroke-width="1"/>
            <rect id="Rectangle_987" data-name="Rectangle 987" width="21.169" height="0.832" transform="translate(124.29 41.811) rotate(-167.351)" fill="#7159c1" stroke="rgba(0,0,0,0)" stroke-width="1"/>
            <path id="Path_3662" data-name="Path 3662" d="M18.716,4.2a4.772,4.772,0,0,1-1.17,3.788L0,0Z" transform="translate(98.436 63.041)" fill="#7159c1" stroke="rgba(0,0,0,0)" stroke-width="1"/>
            <path id="Path_3664" data-name="Path 3664" d="M9.384,27.689c1.374-.177,2.365-2.062,2.287-3.107L.458,0,0,.251Z" transform="translate(95.642 65.485)" fill="#7159c1" stroke="rgba(0,0,0,0)" stroke-width="1"/>
            <path id="Path_3665" data-name="Path 3665" d="M0,1.227A5.265,5.265,0,0,1,2.736,0l6.6,19.354Z" transform="translate(43.661 91.617)" fill="#7159c1" stroke="rgba(0,0,0,0)" stroke-width="1"/>
            <path id="Path_3666" data-name="Path 3666" d="M0,2.355H0A5.572,5.572,0,0,1,2.915,0L14.549,17.047Z" transform="translate(19.269 103.908)" fill="#7159c1" stroke="rgba(0,0,0,0)" stroke-width="1"/>
          </g>
          <rect id="Rectangle_988" data-name="Rectangle 988" width="35.913" height="23.337" rx="3" transform="translate(94.08 124.304) rotate(-179.882)" fill="#7159c1" stroke="rgba(0,0,0,0)" stroke-width="1"/>
          <rect id="Rectangle_989" data-name="Rectangle 989" width="33.807" height="21.27" rx="2" transform="translate(93.028 123.269) rotate(-179.882)" fill="#e8f4fc"/>
          <path id="Path_3667" data-name="Path 3667" d="M3.236,1.125A1.662,1.662,0,1,0,2.2,3.235,1.662,1.662,0,0,0,3.236,1.125Z" transform="translate(89.098 109.75) rotate(-161)" fill="#8cc84b" stroke="rgba(0,0,0,0)" stroke-width="1"/>
          <path id="Path_3668" data-name="Path 3668" d="M3.236,1.125A1.662,1.662,0,1,0,2.2,3.236,1.662,1.662,0,0,0,3.236,1.125Z" transform="translate(89.078 119.724) rotate(-161)" fill="#5667f9" stroke="rgba(0,0,0,0)" stroke-width="1"/>
          <path id="Path_3669" data-name="Path 3669" d="M3.236,1.125A1.662,1.662,0,1,0,2.2,3.236,1.662,1.662,0,0,0,3.236,1.125Z" transform="translate(89.089 114.737) rotate(-161)" fill="#2ac7e3" stroke="rgba(0,0,0,0)" stroke-width="1"/>
          <rect id="Rectangle_991" data-name="Rectangle 991" width="6.677" height="1.579" rx="0.789" transform="translate(68.85 107.058) rotate(-179.882)" fill="#390839"/>
          <rect id="Rectangle_992" data-name="Rectangle 992" width="6.677" height="1.579" rx="0.789" transform="translate(68.841 110.215) rotate(-179.882)" fill="#390839"/>
          <rect id="Rectangle_993" data-name="Rectangle 993" width="6.677" height="1.579" rx="0.789" transform="translate(68.836 113.372) rotate(-179.882)" fill="#390839"/>
          <rect id="Rectangle_994" data-name="Rectangle 994" width="6.677" height="1.579" rx="0.789" transform="translate(68.83 116.53) rotate(-179.882)" fill="#390839"/>
          <rect id="Rectangle_995" data-name="Rectangle 995" width="6.677" height="1.579" rx="0.789" transform="translate(68.825 119.687) rotate(-179.882)" fill="#390839"/>
          <path id="Path_3670" data-name="Path 3670" d="M1.761,5.727l9.385-3.21L10.285,0,.9,3.21A1.33,1.33,0,0,0,.072,4.9h0A1.33,1.33,0,0,0,1.761,5.727Z" transform="translate(103.811 122.883) rotate(-161)" fill="#a1c2e2"/>
          <path id="Path_3671" data-name="Path 3671" d="M1.761,5.727l9.385-3.21L10.285,0,.9,3.21A1.33,1.33,0,0,0,.072,4.9h0A1.331,1.331,0,0,0,1.761,5.727Z" transform="translate(103.833 111.746) rotate(-161)" fill="#a1c2e2"/>
          <path id="Path_3672" data-name="Path 3672" d="M9.385.072,0,3.282.861,5.8l9.385-3.21A1.331,1.331,0,0,0,11.074.9h0A1.33,1.33,0,0,0,9.385.072Z" transform="translate(57.134 111.427) rotate(-161)" fill="#a1c2e2"/>
          <path id="Path_3673" data-name="Path 3673" d="M9.385.072,0,3.282.861,5.8l9.385-3.21A1.33,1.33,0,0,0,11.074.9h0A1.331,1.331,0,0,0,9.385.072Z" transform="translate(57.112 122.563) rotate(-161)" fill="#a1c2e2"/>
          <path id="Path_3674" data-name="Path 3674" d="M1.071,7.374h0L15.137,0,0,10.242A5,5,0,0,1,1.071,7.374Z" transform="translate(102.169 162.603) rotate(-161)" fill="#a1c2e2"/>
          <path id="Path_3675" data-name="Path 3675" d="M17.923,1.613,0,2.679,15.32,0h0A5,5,0,0,1,17.923,1.613Z" transform="translate(63.047 160.158) rotate(-161)" fill="#a1c2e2"/>
          <path id="Path_3676" data-name="Path 3676" d="M0,11.065,22.757,2.484,21.477,0Z" transform="translate(126.942 110.901) rotate(-161)" fill="#a1c2e2"/>
          <path id="Path_3677" data-name="Path 3677" d="M1.385,5.941,2.336.461,1.323,0,0,2.906Z" transform="translate(47.2 115.451) rotate(-161)" fill="#a1c2e2"/>
          <path id="Path_3678" data-name="Path 3678" d="M0,19.465,19.368,1.457,17.844,0Z" transform="translate(151.284 105.688) rotate(-161)" fill="#a1c2e2"/>
          <path id="Path_3679" data-name="Path 3679" d="M0,25.456l2.284.512L7.02,0Z" transform="translate(38.112 139.099) rotate(-161)" fill="#a1c2e2"/>
          <path id="Path_3680" data-name="Path 3680" d="M5.537,16.812,1.953,0,0,.668Z" transform="translate(103.289 180.891) rotate(-161)" fill="#a1c2e2"/>
          <path id="Path_3681" data-name="Path 3681" d="M5.227,16.05,2.242,0,0,.767Z" transform="translate(68.653 180.914) rotate(-161)" fill="#a1c2e2"/>
          <rect id="Rectangle_1388" data-name="Rectangle 1388" width="12.61" height="14.186" rx="1" transform="translate(83.786 119.647) rotate(180)" fill="#7159c1" stroke="rgba(0,0,0,0)" stroke-width="1"/>
          <g id="Group_1000" data-name="Group 1000" transform="translate(74.327 109.007)">
            <path id="Fill_22" data-name="Fill 22" d="M1.849,1.106.947.555.045,0A.025.025,0,0,0,.006.024L0,.157A.078.078,0,0,0,.012.2l.207.33A.146.146,0,0,1,.237.646L.09,1.209a.059.059,0,0,0,.02.061,2.8,2.8,0,0,0,.281.194,2.793,2.793,0,0,0,.3.161.059.059,0,0,0,.063-.01l.434-.387a.146.146,0,0,1,.11-.036l.388.034a.078.078,0,0,0,.046-.01l.115-.066a.025.025,0,0,0,0-.044" transform="translate(0.865 3.393)" fill="#fff"/>
            <path id="Fill_24" data-name="Fill 24" d="M1.489.41A.144.144,0,0,0,1.412.3C1.3.247,1.2.192,1.179.177S1.063.1.959.028A.144.144,0,0,0,.83.007L.8.015A.543.543,0,0,0,.447.388L0,2a.055.055,0,0,0,.091.056L1.325.924A.544.544,0,0,0,1.494.436Z" transform="translate(0 4.808)" fill="#fff"/>
            <path id="Fill_26" data-name="Fill 26" d="M5.43.3a.1.1,0,0,0,0-.145h0a.191.191,0,0,0-.09-.039L4.572,0a.193.193,0,0,0-.185.077L3.97.645A.193.193,0,0,0,4,.909a.015.015,0,0,1,0,.019.015.015,0,0,1-.015.007L3.78.9,3.49.859a.22.22,0,0,0-.21.087L2.059,2.6a.052.052,0,0,1-.068.014L.815,1.905a.162.162,0,0,0-.224.059.167.167,0,0,0,.063.223l.03.018a.043.043,0,0,1,.021.044L.67,2.485a.032.032,0,0,1-.048.023l-.172-.1a.3.3,0,0,0-.35.472s.034.026.041.031h0l.878.538a.805.805,0,0,0,.948-.033.31.31,0,0,1,.4-.042.216.216,0,0,0,.222,0l.219-.13a.2.2,0,0,1,.209,0l.666.4a.059.059,0,0,0,.078-.016l1.627-2.2c.133-.177.034-.263-.046-.284l-.016,0-.39-.059a.047.047,0,0,1-.017-.007.046.046,0,0,1-.015-.063L5.43.3" transform="translate(0.301 0)" fill="#fff"/>
          </g>
          <g id="Group_1685" data-name="Group 1685" transform="translate(118.794 62.207) rotate(-161)">
            <path id="Path_3684" data-name="Path 3684" d="M11.7,15.343c.16.468.332.918.5,1.372l-5.02,1.717a1.112,1.112,0,0,1-1.411-.509L.1,4A1.246,1.246,0,0,1,.864,2.335L7.688,0A89.3,89.3,0,0,0,11.7,15.343Z" transform="translate(0 0)" fill="#7159c1" stroke="rgba(0,0,0,0)" stroke-width="1"/>
            <path id="Path_3685" data-name="Path 3685" d="M2.346.815A1.205,1.205,0,1,0,1.6,2.346,1.206,1.206,0,0,0,2.346.815Z" transform="translate(6.701 12.675)" fill="#fff"/>
            <path id="Path_3687" data-name="Path 3687" d="M2.732.95a1.4,1.4,0,1,0-.874,1.782A1.4,1.4,0,0,0,2.732.95Z" transform="translate(3.996 5.15)" fill="#fff"/>
          </g>
          <g id="Group_1686" data-name="Group 1686" transform="translate(40.38 61.852) rotate(-161)">
            <path id="Path_3688" data-name="Path 3688" d="M12.475,15.4a1.112,1.112,0,0,1-.8,1.267L6.666,18.381c-.144-.463-.284-.924-.444-1.392A89.293,89.293,0,0,0,0,2.4L6.811.072A1.247,1.247,0,0,1,8.437.916Z" transform="translate(0 0)" fill="#7159c1" stroke="rgba(0,0,0,0)" stroke-width="1"/>
            <path id="Path_3689" data-name="Path 3689" d="M.065,1.6a1.205,1.205,0,1,1,1.53.75A1.206,1.206,0,0,1,.065,1.6Z" transform="translate(7.109 12.307)" fill="#fff"/>
            <path id="Path_3691" data-name="Path 3691" d="M.076,1.858a1.4,1.4,0,1,1,1.782.874A1.4,1.4,0,0,1,.076,1.858Z" transform="translate(4.405 4.782)" fill="#fff"/>
          </g>
          <ellipse id="Ellipse_104" data-name="Ellipse 104" cx="37.063" cy="37.063" rx="37.063" ry="37.063" transform="translate(59.212 99.119) rotate(-116)" fill="#e8f4fc"/>
          <ellipse id="Ellipse_105" data-name="Ellipse 105" cx="29.009" cy="35.489" rx="29.009" ry="35.489" transform="translate(40.723 81.107) rotate(-89.882)" fill="#bababa"/>
          <path id="Path_7493" data-name="Path 7493" d="M28.261,0C43.869,0,56.521,15.479,56.521,34.574S43.869,69.148,28.261,69.148,0,53.669,0,34.574,12.653,0,28.261,0Z" transform="translate(41.64 80.361) rotate(-89.882)" fill="#15141a"/>
          <path id="Path_3692" data-name="Path 3692" d="M.442,17.253C2.381,19.841,8.991,14.768,11.61,10.1s3.145-8.82.843-9.864C9.334-1.183,9.408,4.172,6,8.326,3.995,10.764-1.6,14.526.442,17.253Z" transform="translate(59.722 50.569) rotate(-161)" fill="#7a7980"/>
        </g>
        <path id="Path_3659" data-name="Path 3659" d="M12.346,8.393l1.983,6.175a3.048,3.048,0,0,1-1.948,3.815,2.985,2.985,0,0,1-3.789-1.918L7.085,11.773A6.657,6.657,0,0,1,.972,8.853C-2.391,3.654,4.052,0,4.052,0Z" transform="translate(158.806 101.056) rotate(-161)" fill="#a1c2e2"/>
        <g id="Group_1681" data-name="Group 1681" transform="translate(153.962)">
          <g id="Group_1680" data-name="Group 1680" transform="translate(0)">
            <g id="Group_1678" data-name="Group 1678">
              <rect id="Rectangle_976" data-name="Rectangle 976" width="4.673" height="232.453" transform="translate(4.673 232.453) rotate(-180)" fill="#c8d1d6"/>
              <g id="Group_1677" data-name="Group 1677" transform="translate(4.672 2.583)">
                <path id="Path_3636" data-name="Path 3636" d="M998.757,119.246c33.188,12.111,66.375-12.108,99.56,0V58.7c-33.185-12.111-66.372,12.108-99.56,0Z" transform="translate(-998.757 -55.204)" fill="#7159c1"/>
              </g>
            </g>
            <path id="Path_9823" data-name="Path 9823" d="M4.356.322h6.823V2.9H1.143V-12.691H4.356ZM12.335-3A6.873,6.873,0,0,1,13-6.072,4.861,4.861,0,0,1,14.911-8.16a5.578,5.578,0,0,1,2.9-.739,5.277,5.277,0,0,1,3.829,1.435,5.76,5.76,0,0,1,1.655,3.9l.021.793a6.057,6.057,0,0,1-1.489,4.279,5.175,5.175,0,0,1-4,1.612,5.2,5.2,0,0,1-4-1.607,6.164,6.164,0,0,1-1.494-4.37Zm3.1.225a4.32,4.32,0,0,0,.621,2.522A2.05,2.05,0,0,0,17.83.622,2.055,2.055,0,0,0,19.587-.24,4.727,4.727,0,0,0,20.219-3,4.277,4.277,0,0,0,19.587-5.5a2.055,2.055,0,0,0-1.778-.889,2.022,2.022,0,0,0-1.757.884A4.807,4.807,0,0,0,15.431-2.773Zm9.34-.2a6.792,6.792,0,0,1,1.269-4.3A4.113,4.113,0,0,1,29.462-8.9a3.607,3.607,0,0,1,2.967,1.307l.129-1.093h2.806v11.2a4.953,4.953,0,0,1-.691,2.646,4.437,4.437,0,0,1-1.944,1.714,6.834,6.834,0,0,1-2.935.589,6.355,6.355,0,0,1-2.485-.509,4.41,4.41,0,0,1-1.832-1.312l1.371-1.885a3.626,3.626,0,0,0,2.806,1.3A2.654,2.654,0,0,0,31.572,4.4a2.471,2.471,0,0,0,.685-1.869V1.908a3.58,3.58,0,0,1-2.817,1.21,4.1,4.1,0,0,1-3.379-1.633,6.79,6.79,0,0,1-1.291-4.333Zm3.1.225A4.218,4.218,0,0,0,28.5-.283a2.011,2.011,0,0,0,1.735.894,2.15,2.15,0,0,0,2.024-1.06V-5.322a2.145,2.145,0,0,0-2-1.06,2.024,2.024,0,0,0-1.751.91A4.754,4.754,0,0,0,27.866-2.752ZM41.008,2.9H37.9V-8.685h3.106ZM37.72-11.684a1.524,1.524,0,0,1,.466-1.146,1.75,1.75,0,0,1,1.269-.45,1.754,1.754,0,0,1,1.264.45,1.516,1.516,0,0,1,.471,1.146,1.52,1.52,0,0,1-.477,1.157,1.759,1.759,0,0,1-1.259.45,1.759,1.759,0,0,1-1.259-.45A1.52,1.52,0,0,1,37.72-11.684Zm8.686,3,.1,1.339A4.046,4.046,0,0,1,49.834-8.9a3.363,3.363,0,0,1,2.742,1.082A5.047,5.047,0,0,1,53.5-4.583V2.9H50.4V-4.508a2.008,2.008,0,0,0-.428-1.43,1.918,1.918,0,0,0-1.425-.445,2.129,2.129,0,0,0-1.96,1.114V2.9h-3.1V-8.685Z" transform="translate(25.632 39.523)" fill="#fff"/>
          </g>
        </g>
        <path id="Path_3694" data-name="Path 3694" d="M6.059,7.491c-.014-1.235.066-4.432.066-4.432a3.019,3.019,0,1,0-6.038-.08L0,9.482,4.276,18.3A28.443,28.443,0,0,0,6.059,7.491Z" transform="translate(149.773 78.674)" fill="#a1c2e2"/>
      </g>
    </g>
    <path id="Path_11876" data-name="Path 11876" d="M94.106,40.122H81.292V-27.75H94.106Zm38.222,0a14.181,14.181,0,0,1-1.281-4.286,15.452,15.452,0,0,1-12.063,5.17,16.975,16.975,0,0,1-11.643-4.065,13.074,13.074,0,0,1-4.618-10.252q0-7.6,5.634-11.666t16.283-4.109h5.877V8.175a7.879,7.879,0,0,0-1.7-5.3q-1.7-1.988-5.369-1.988a7.609,7.609,0,0,0-5.06,1.547,5.254,5.254,0,0,0-1.834,4.242h-12.77a12.828,12.828,0,0,1,2.563-7.689,16.941,16.941,0,0,1,7.247-5.546,26.411,26.411,0,0,1,10.517-2.011q8.838,0,14.03,4.441t5.192,12.483V29.075q.044,6.8,1.9,10.3v.751Zm-10.561-8.882a11,11,0,0,0,5.214-1.259,8.271,8.271,0,0,0,3.535-3.38V18.382h-4.772q-9.589,0-10.207,6.628l-.044.751a5.112,5.112,0,0,0,1.679,3.933A6.522,6.522,0,0,0,121.768,31.241Zm74.456-14.582q0,11.489-4.9,17.918t-13.7,6.429A14.927,14.927,0,0,1,165.2,35.041l-.574,5.082H153.141V-27.75h12.77V-3.4a14.544,14.544,0,0,1,11.621-5.17q8.749,0,13.72,6.429t4.971,18.095Zm-12.77-.928q0-7.247-2.3-10.583a7.77,7.77,0,0,0-6.849-3.336q-6.1,0-8.4,4.993V25.673q2.342,5.037,8.484,5.037,6.186,0,8.131-6.1A31.458,31.458,0,0,0,183.454,15.731Z" transform="translate(351.263 224.032)" fill="#7159c1"/>
  </g>
</svg>
